<?xml version="1.0" encoding="utf-8"?>
<!-- Generator: Adobe Illustrator 15.0.0, SVG Export Plug-In . SVG Version: 6.00 Build 0)  -->
<!DOCTYPE svg PUBLIC "-//W3C//DTD SVG 1.1//EN" "http://www.w3.org/Graphics/SVG/1.1/DTD/svg11.dtd" [
	<!ENTITY st0 "fill:url(#SVGID_1_);">
	<!ENTITY st1 "fill:url(#SVGID_2_);">
	<!ENTITY st2 "fill:url(#SVGID_3_);">
	<!ENTITY st3 "fill:url(#SVGID_4_);">
	<!ENTITY st4 "fill:url(#SVGID_5_);">
	<!ENTITY st5 "fill:url(#SVGID_6_);">
	<!ENTITY st6 "fill:url(#SVGID_7_);">
	<!ENTITY st7 "fill:url(#SVGID_8_);">
	<!ENTITY st8 "fill:url(#SVGID_9_);">
	<!ENTITY st9 "fill:url(#SVGID_10_);">
	<!ENTITY st10 "fill:url(#SVGID_11_);">
	<!ENTITY st11 "fill:url(#SVGID_12_);">
	<!ENTITY st12 "fill:url(#SVGID_13_);">
	<!ENTITY st13 "fill:url(#SVGID_14_);">
	<!ENTITY st14 "fill:url(#SVGID_15_);">
	<!ENTITY st15 "fill:url(#SVGID_16_);">
	<!ENTITY st16 "fill:url(#SVGID_17_);">
	<!ENTITY st17 "fill:url(#SVGID_18_);">
	<!ENTITY st18 "fill:url(#SVGID_19_);">
	<!ENTITY st19 "fill:url(#SVGID_20_);">
	<!ENTITY st20 "fill:url(#SVGID_21_);">
	<!ENTITY st21 "fill:url(#SVGID_22_);">
	<!ENTITY st22 "fill:url(#SVGID_23_);">
	<!ENTITY st23 "fill:url(#SVGID_24_);">
	<!ENTITY st24 "fill:url(#SVGID_25_);">
]>
<svg version="1.1" id="newheaderlong_xA0_Image_1_" xmlns="http://www.w3.org/2000/svg" xmlns:xlink="http://www.w3.org/1999/xlink"
	 x="0px" y="0px" width="5200px" height="400px" viewBox="0 0 5200 400" style="enable-background:new 0 0 5200 400;"
	 xml:space="preserve">
<g>
	<linearGradient id="SVGID_1_" gradientUnits="userSpaceOnUse" x1="0" y1="400" x2="401.7597" y2="-1.7597">
		<stop  offset="0" style="stop-color:#000000"/>
		<stop  offset="1" style="stop-color:#2D2D2D"/>
	</linearGradient>
	<rect x="0" y="0" style="&st0;" width="400" height="400"/>
	<linearGradient id="SVGID_2_" gradientUnits="userSpaceOnUse" x1="400" y1="400.001" x2="801.7598" y2="-1.7588">
		<stop  offset="0" style="stop-color:#DBDBDB"/>
		<stop  offset="1" style="stop-color:#FFFFFF"/>
	</linearGradient>
	<rect x="400" y="0" style="&st1;" width="400" height="400"/>
	<linearGradient id="SVGID_3_" gradientUnits="userSpaceOnUse" x1="800" y1="400.001" x2="1201.7598" y2="-1.7588">
		<stop  offset="0" style="stop-color:#000000"/>
		<stop  offset="1" style="stop-color:#2D2D2D"/>
	</linearGradient>
	<rect x="800" y="0" style="&st2;" width="400" height="400"/>
	<linearGradient id="SVGID_4_" gradientUnits="userSpaceOnUse" x1="1200" y1="400.001" x2="1601.7598" y2="-1.7588">
		<stop  offset="0" style="stop-color:#DBDBDB"/>
		<stop  offset="1" style="stop-color:#FFFFFF"/>
	</linearGradient>
	<rect x="1200" y="0" style="&st3;" width="400" height="400"/>
	<linearGradient id="SVGID_5_" gradientUnits="userSpaceOnUse" x1="1600" y1="400.001" x2="2001.7598" y2="-1.7588">
		<stop  offset="0" style="stop-color:#000000"/>
		<stop  offset="1" style="stop-color:#2D2D2D"/>
	</linearGradient>
	<rect x="1600" y="0" style="&st4;" width="400" height="400"/>
	<linearGradient id="SVGID_6_" gradientUnits="userSpaceOnUse" x1="2000" y1="400.001" x2="2401.7598" y2="-1.7588">
		<stop  offset="0" style="stop-color:#DBDBDB"/>
		<stop  offset="1" style="stop-color:#FFFFFF"/>
	</linearGradient>
	<rect x="2000" y="0" style="&st5;" width="400" height="400"/>
	<linearGradient id="SVGID_7_" gradientUnits="userSpaceOnUse" x1="2400" y1="400.001" x2="2801.76" y2="-1.759">
		<stop  offset="0" style="stop-color:#000000"/>
		<stop  offset="1" style="stop-color:#2D2D2D"/>
	</linearGradient>
	<rect x="2400" y="0" style="&st6;" width="400" height="400"/>
	<linearGradient id="SVGID_8_" gradientUnits="userSpaceOnUse" x1="2800" y1="400" x2="3201.7598" y2="-1.7598">
		<stop  offset="0" style="stop-color:#DBDBDB"/>
		<stop  offset="1" style="stop-color:#FFFFFF"/>
	</linearGradient>
	<rect x="2800" y="0" style="&st7;" width="400" height="400"/>
	<linearGradient id="SVGID_9_" gradientUnits="userSpaceOnUse" x1="3200.001" y1="400" x2="3601.7607" y2="-1.7597">
		<stop  offset="0" style="stop-color:#000000"/>
		<stop  offset="1" style="stop-color:#2D2D2D"/>
	</linearGradient>
	<rect x="3200" y="0" style="&st8;" width="400" height="400"/>
	<linearGradient id="SVGID_10_" gradientUnits="userSpaceOnUse" x1="3600.001" y1="400.001" x2="4001.7607" y2="-1.7588">
		<stop  offset="0" style="stop-color:#DBDBDB"/>
		<stop  offset="1" style="stop-color:#FFFFFF"/>
	</linearGradient>
	<rect x="3600" y="0" style="&st9;" width="400" height="400"/>
	<linearGradient id="SVGID_11_" gradientUnits="userSpaceOnUse" x1="4000.001" y1="400.001" x2="4401.7607" y2="-1.7588">
		<stop  offset="0" style="stop-color:#000000"/>
		<stop  offset="1" style="stop-color:#2D2D2D"/>
	</linearGradient>
	<rect x="4000" y="0" style="&st10;" width="400" height="400"/>
	<linearGradient id="SVGID_12_" gradientUnits="userSpaceOnUse" x1="4400.001" y1="400.001" x2="4801.7607" y2="-1.7588">
		<stop  offset="0" style="stop-color:#DBDBDB"/>
		<stop  offset="1" style="stop-color:#FFFFFF"/>
	</linearGradient>
	<rect x="4400" y="0" style="&st11;" width="400" height="400"/>
	<linearGradient id="SVGID_13_" gradientUnits="userSpaceOnUse" x1="4800.001" y1="400.001" x2="5201.7607" y2="-1.7588">
		<stop  offset="0" style="stop-color:#000000"/>
		<stop  offset="1" style="stop-color:#2D2D2D"/>
	</linearGradient>
	<rect x="4800" y="0" style="&st12;" width="400" height="400"/>
	<g>
		<g>
			<path d="M349.896,337.736c1.267,3.121,1.837,4.888,1.712,5.313c-0.131,0.425-1.207,0.638-3.235,0.638h-89.447
				c-2.284,0-4.062-1.129-5.329-3.4c-2.284-5.664-4.443-11.116-6.471-16.362c-2.034-5.239-4.187-10.552-6.471-15.938h-88.686
				c-2.54,5.95-4.633,11.336-6.28,16.15c-1.653,4.821-3.616,9.774-5.899,14.875c-1.017,1.985-1.844,3.261-2.474,3.825
				c-0.637,0.57-2.349,0.85-5.139,0.85H54.15c-3.045,0-3.55-1.979-1.522-5.95c11.419-23.229,23.153-47.314,35.208-72.25
				c12.049-24.929,23.979-49.791,35.779-74.587c11.799-24.79,23.343-49.015,34.637-72.676
				c11.288-23.653,21.886-45.826,31.782-66.512c0.506-0.851,1.647-1.415,3.426-1.7c1.772-0.279,3.675-0.425,5.709-0.425
				c2.284,0,4.377,0.072,6.28,0.212c1.903,0.146,3.104,0.638,3.616,1.487c22.326,45.336,45.419,92.65,69.273,141.95
				C302.187,242.536,326.042,290.708,349.896,337.736z M214.013,230.212c-1.778-4.25-3.616-8.926-5.519-14.025
				c-1.903-5.1-3.747-9.914-5.519-14.45c-1.017-2.265-1.844-4.462-2.474-6.587c-0.636-2.125-1.207-3.892-1.713-5.313
				c-0.761-1.7-1.397-3.4-1.903-5.101c-0.512,1.7-1.142,3.4-1.903,5.101c-0.511,1.421-1.142,3.188-1.903,5.313
				s-1.522,4.322-2.284,6.587c-1.778,4.821-3.616,9.709-5.52,14.663c-1.903,4.96-3.747,9.563-5.519,13.813
				c-2.034,5.1-4.062,10.061-6.09,14.875h46.056C217.944,240.272,216.041,235.312,214.013,230.212z"/>
		</g>
		<g>
			<linearGradient id="SVGID_14_" gradientUnits="userSpaceOnUse" x1="51.4102" y1="196.6367" x2="351.6255" y2="196.6367">
				<stop  offset="0" style="stop-color:#DBDBDB"/>
				<stop  offset="1" style="stop-color:#FFFFFF"/>
			</linearGradient>
			<path style="&st13;" d="M349.896,337.736c1.267,3.121,1.837,4.888,1.712,5.313c-0.131,0.425-1.207,0.638-3.235,0.638h-89.447
				c-2.284,0-4.062-1.129-5.329-3.4c-2.284-5.664-4.443-11.116-6.471-16.362c-2.034-5.239-4.187-10.552-6.471-15.938h-88.686
				c-2.54,5.95-4.633,11.336-6.28,16.15c-1.653,4.821-3.616,9.774-5.899,14.875c-1.017,1.985-1.844,3.261-2.474,3.825
				c-0.637,0.57-2.349,0.85-5.139,0.85H54.15c-3.045,0-3.55-1.979-1.522-5.95c11.419-23.229,23.153-47.314,35.208-72.25
				c12.049-24.929,23.979-49.791,35.779-74.587c11.799-24.79,23.343-49.015,34.637-72.676
				c11.288-23.653,21.886-45.826,31.782-66.512c0.506-0.851,1.647-1.415,3.426-1.7c1.772-0.279,3.675-0.425,5.709-0.425
				c2.284,0,4.377,0.072,6.28,0.212c1.903,0.146,3.104,0.638,3.616,1.487c22.326,45.336,45.419,92.65,69.273,141.95
				C302.187,242.536,326.042,290.708,349.896,337.736z M214.013,230.212c-1.778-4.25-3.616-8.926-5.519-14.025
				c-1.903-5.1-3.747-9.914-5.519-14.45c-1.017-2.265-1.844-4.462-2.474-6.587c-0.636-2.125-1.207-3.892-1.713-5.313
				c-0.761-1.7-1.397-3.4-1.903-5.101c-0.512,1.7-1.142,3.4-1.903,5.101c-0.511,1.421-1.142,3.188-1.903,5.313
				s-1.522,4.322-2.284,6.587c-1.778,4.821-3.616,9.709-5.52,14.663c-1.903,4.96-3.747,9.563-5.519,13.813
				c-2.034,5.1-4.062,10.061-6.09,14.875h46.056C217.944,240.272,216.041,235.312,214.013,230.212z"/>
		</g>
	</g>
	<g>
		<g>
			<path d="M757.052,61.062c-10.157,30.321-19.356,57.448-27.592,81.388c-8.242,23.946-16.082,46.896-23.529,68.85
				c-7.448,21.961-14.896,43.987-22.345,66.088c-7.448,22.1-15.574,46.325-24.376,72.675c-0.677,2.829-2.259,4.25-4.74,4.25
				c-1.809,0-3.274-1.136-4.401-3.4c-8.58-17.564-16.028-32.864-22.345-45.899c-6.321-13.029-11.627-24.079-15.912-33.15
				c-4.967-10.479-9.257-19.403-12.865-26.774c-3.613,7.936-8.014,17.146-13.204,27.625c-4.518,9.07-9.935,20.188-16.251,33.362
				c-6.321,13.175-13.658,28.263-22.006,45.263c-1.132,1.699-2.708,2.55-4.74,2.55s-3.386-0.851-4.063-2.55
				c-9.03-26.064-17.213-50.004-24.545-71.825c-7.337-21.814-14.616-43.629-21.837-65.45c-7.226-21.814-14.785-44.765-22.683-68.85
				c-7.903-24.079-16.706-51.426-26.407-82.025c-1.132-3.4-1.582-5.525-1.354-6.375c0.222-0.85,1.354-1.275,3.386-1.275h77.529
				c3.158,0.286,5.358,0.924,6.602,1.913c1.238,0.996,2.201,2.908,2.878,5.737c2.253,9.071,4.792,19.483,7.617,31.237
				c2.82,11.761,5.47,22.884,7.956,33.362c2.931,12.186,5.867,24.65,8.803,37.4c6.316-16.15,12.299-31.304,17.943-45.475
				c2.253-5.95,4.623-12.04,7.109-18.275c2.481-6.229,4.793-12.179,6.94-17.85c2.143-5.665,4.116-10.838,5.925-15.513
				c1.804-4.675,3.269-8.427,4.401-11.263c0.899-2.55,2.481-3.825,4.74-3.825c1.804,0,3.269,1.275,4.401,3.825
				c1.127,3.121,2.54,7.013,4.232,11.688c1.693,4.675,3.555,9.921,5.586,15.725c2.031,5.811,4.232,11.834,6.602,18.063
				c2.37,6.236,4.682,12.325,6.94,18.275c5.189,14.171,10.834,29.471,16.928,45.9c3.158-13.029,6.316-26.064,9.479-39.101
				c2.708-11.05,5.528-22.737,8.464-35.063c2.931-12.325,5.639-23.162,8.125-32.513c0.45-2.264,0.846-3.539,1.185-3.824
				c0.338-0.279,1.296-0.426,2.877-0.426h75.498c2.481,0,3.893,0.213,4.232,0.638C758.575,56.599,758.179,58.232,757.052,61.062z"/>
		</g>
		<g>
			<linearGradient id="SVGID_15_" gradientUnits="userSpaceOnUse" x1="441.7998" y1="203.6484" x2="758.3535" y2="203.6484">
				<stop  offset="0" style="stop-color:#000000"/>
				<stop  offset="1" style="stop-color:#2D2D2D"/>
			</linearGradient>
			<path style="&st14;" d="M757.052,61.062c-10.157,30.321-19.356,57.448-27.592,81.388c-8.242,23.946-16.082,46.896-23.529,68.85
				c-7.448,21.961-14.896,43.987-22.345,66.088c-7.448,22.1-15.574,46.325-24.376,72.675c-0.677,2.829-2.259,4.25-4.74,4.25
				c-1.809,0-3.274-1.136-4.401-3.4c-8.58-17.564-16.028-32.864-22.345-45.899c-6.321-13.029-11.627-24.079-15.912-33.15
				c-4.967-10.479-9.257-19.403-12.865-26.774c-3.613,7.936-8.014,17.146-13.204,27.625c-4.518,9.07-9.935,20.188-16.251,33.362
				c-6.321,13.175-13.658,28.263-22.006,45.263c-1.132,1.699-2.708,2.55-4.74,2.55s-3.386-0.851-4.063-2.55
				c-9.03-26.064-17.213-50.004-24.545-71.825c-7.337-21.814-14.616-43.629-21.837-65.45c-7.226-21.814-14.785-44.765-22.683-68.85
				c-7.903-24.079-16.706-51.426-26.407-82.025c-1.132-3.4-1.582-5.525-1.354-6.375c0.222-0.85,1.354-1.275,3.386-1.275h77.529
				c3.158,0.286,5.358,0.924,6.602,1.913c1.238,0.996,2.201,2.908,2.878,5.737c2.253,9.071,4.792,19.483,7.617,31.237
				c2.82,11.761,5.47,22.884,7.956,33.362c2.931,12.186,5.867,24.65,8.803,37.4c6.316-16.15,12.299-31.304,17.943-45.475
				c2.253-5.95,4.623-12.04,7.109-18.275c2.481-6.229,4.793-12.179,6.94-17.85c2.143-5.665,4.116-10.838,5.925-15.513
				c1.804-4.675,3.269-8.427,4.401-11.263c0.899-2.55,2.481-3.825,4.74-3.825c1.804,0,3.269,1.275,4.401,3.825
				c1.127,3.121,2.54,7.013,4.232,11.688c1.693,4.675,3.555,9.921,5.586,15.725c2.031,5.811,4.232,11.834,6.602,18.063
				c2.37,6.236,4.682,12.325,6.94,18.275c5.189,14.171,10.834,29.471,16.928,45.9c3.158-13.029,6.316-26.064,9.479-39.101
				c2.708-11.05,5.528-22.737,8.464-35.063c2.931-12.325,5.639-23.162,8.125-32.513c0.45-2.264,0.846-3.539,1.185-3.824
				c0.338-0.279,1.296-0.426,2.877-0.426h75.498c2.481,0,3.893,0.213,4.232,0.638C758.575,56.599,758.179,58.232,757.052,61.062z"/>
		</g>
	</g>
	<g>
		<g>
			<path d="M1122.309,342.624c-0.425,0.711-1.773,1.063-4.037,1.063H902.797c-2.271,0-3.686-0.352-4.25-1.063
				c-0.571-0.704-0.85-2.338-0.85-4.888V59.786c0-1.979,0.14-3.188,0.425-3.612c0.279-0.425,1.7-0.638,4.25-0.638h212.075
				c2.265,0,3.679,0.286,4.25,0.851c0.564,0.571,0.85,2.271,0.85,5.1v56.101c0,2.271-0.286,3.824-0.85,4.675
				c-0.571,0.85-1.985,1.274-4.25,1.274H995.872v37.4h115.6c2.265,0,3.679,0.358,4.25,1.063c0.564,0.711,0.85,2.338,0.85,4.888v64.6
				c0,2.271-0.286,3.759-0.85,4.463c-0.571,0.71-1.985,1.063-4.25,1.063h-115.6v35.7h122.4c2.264,0,3.612,0.212,4.037,0.637
				c0.425,0.426,0.638,2.059,0.638,4.888v59.5C1122.947,340.286,1122.734,341.92,1122.309,342.624z"/>
		</g>
		<g>
			<linearGradient id="SVGID_16_" gradientUnits="userSpaceOnUse" x1="897.6968" y1="199.6113" x2="1122.9468" y2="199.6113">
				<stop  offset="0" style="stop-color:#DBDBDB"/>
				<stop  offset="1" style="stop-color:#FFFFFF"/>
			</linearGradient>
			<path style="&st15;" d="M1122.309,342.624c-0.425,0.711-1.773,1.063-4.037,1.063H902.797c-2.271,0-3.686-0.352-4.25-1.063
				c-0.571-0.704-0.85-2.338-0.85-4.888V59.786c0-1.979,0.14-3.188,0.425-3.612c0.279-0.425,1.7-0.638,4.25-0.638h212.075
				c2.265,0,3.679,0.286,4.25,0.851c0.564,0.571,0.85,2.271,0.85,5.1v56.101c0,2.271-0.286,3.824-0.85,4.675
				c-0.571,0.85-1.985,1.274-4.25,1.274H995.872v37.4h115.6c2.265,0,3.679,0.358,4.25,1.063c0.564,0.711,0.85,2.338,0.85,4.888v64.6
				c0,2.271-0.286,3.759-0.85,4.463c-0.571,0.71-1.985,1.063-4.25,1.063h-115.6v35.7h122.4c2.264,0,3.612,0.212,4.037,0.637
				c0.425,0.426,0.638,2.059,0.638,4.888v59.5C1122.947,340.286,1122.734,341.92,1122.309,342.624z"/>
		</g>
	</g>
	<g>
		<g>
			<path d="M1524.433,243.812c0,17.85-3.333,33.575-9.987,47.175c-6.661,13.601-15.725,25.075-27.2,34.425
				c-11.475,9.351-24.936,16.436-40.375,21.25c-15.446,4.814-31.948,7.226-49.513,7.226c-29.186,0-53.41-5.811-72.675-17.425
				c-19.271-11.615-33.011-27.479-41.225-47.601c-1.421-3.399-1.985-5.452-1.7-6.162c0.279-0.704,1.414-1.342,3.4-1.913l63.325-23.8
				c1.979-0.85,3.188-1.129,3.613-0.85c0.425,0.285,0.917,1.136,1.487,2.55c2.265,7.936,7.225,14.596,14.875,19.975
				c7.65,5.386,16.15,8.075,25.5,8.075c9.915,0,17.352-1.979,22.313-5.95c4.954-3.964,7.438-9.203,7.438-15.725
				c0-7.079-2.975-12.179-8.925-15.3c-5.95-3.114-15.3-5.379-28.05-6.8c-1.421-0.279-3.188-0.492-5.313-0.638
				c-2.125-0.14-3.898-0.353-5.313-0.638c-8.221-0.564-17.425-2.191-27.625-4.888c-10.2-2.689-19.762-7.151-28.688-13.388
				c-8.925-6.229-16.508-14.802-22.737-25.712c-6.235-10.904-9.35-25.002-9.35-42.288c0-16.429,2.617-31.377,7.863-44.837
				c5.239-13.454,13.102-24.929,23.587-34.425c10.479-9.49,23.441-16.788,38.887-21.888c15.439-5.101,33.217-7.65,53.338-7.65
				c30.029,0,53.762,5.737,71.188,17.213c17.425,11.475,28.116,26.563,32.087,45.263c0.564,2.55,0.777,4.184,0.637,4.887
				c-0.146,0.711-1.348,1.488-3.612,2.338l-59.925,22.1c-1.7,0.851-2.836,1.209-3.4,1.063c-0.571-0.139-1.135-1.063-1.7-2.762
				c-3.4-7.93-8.075-13.952-14.025-18.063c-5.95-4.104-14.171-6.163-24.65-6.163c-9.921,0-17,1.913-21.25,5.737
				c-4.25,3.825-6.375,8.573-6.375,14.238c0,6.521,3.115,11.195,9.35,14.024c6.229,2.836,17.279,5.386,33.15,7.65
				c2.265,0.571,4.602,0.923,7.013,1.063c2.404,0.146,5.167,0.498,8.288,1.063c11.9,1.7,23.089,4.462,33.575,8.287
				c10.479,3.825,19.617,9.071,27.413,15.726c7.79,6.66,13.952,15.16,18.488,25.5
				C1522.162,216.12,1524.433,228.797,1524.433,243.812z"/>
		</g>
		<g>
			<linearGradient id="SVGID_17_" gradientUnits="userSpaceOnUse" x1="1281.686" y1="200.249" x2="1524.4326" y2="200.249">
				<stop  offset="0" style="stop-color:#000000"/>
				<stop  offset="1" style="stop-color:#2D2D2D"/>
			</linearGradient>
			<path style="&st16;" d="M1524.433,243.812c0,17.85-3.333,33.575-9.987,47.175c-6.661,13.601-15.725,25.075-27.2,34.425
				c-11.475,9.351-24.936,16.436-40.375,21.25c-15.446,4.814-31.948,7.226-49.513,7.226c-29.186,0-53.41-5.811-72.675-17.425
				c-19.271-11.615-33.011-27.479-41.225-47.601c-1.421-3.399-1.985-5.452-1.7-6.162c0.279-0.704,1.414-1.342,3.4-1.913l63.325-23.8
				c1.979-0.85,3.188-1.129,3.613-0.85c0.425,0.285,0.917,1.136,1.487,2.55c2.265,7.936,7.225,14.596,14.875,19.975
				c7.65,5.386,16.15,8.075,25.5,8.075c9.915,0,17.352-1.979,22.313-5.95c4.954-3.964,7.438-9.203,7.438-15.725
				c0-7.079-2.975-12.179-8.925-15.3c-5.95-3.114-15.3-5.379-28.05-6.8c-1.421-0.279-3.188-0.492-5.313-0.638
				c-2.125-0.14-3.898-0.353-5.313-0.638c-8.221-0.564-17.425-2.191-27.625-4.888c-10.2-2.689-19.762-7.151-28.688-13.388
				c-8.925-6.229-16.508-14.802-22.737-25.712c-6.235-10.904-9.35-25.002-9.35-42.288c0-16.429,2.617-31.377,7.863-44.837
				c5.239-13.454,13.102-24.929,23.587-34.425c10.479-9.49,23.441-16.788,38.887-21.888c15.439-5.101,33.217-7.65,53.338-7.65
				c30.029,0,53.762,5.737,71.188,17.213c17.425,11.475,28.116,26.563,32.087,45.263c0.564,2.55,0.777,4.184,0.637,4.887
				c-0.146,0.711-1.348,1.488-3.612,2.338l-59.925,22.1c-1.7,0.851-2.836,1.209-3.4,1.063c-0.571-0.139-1.135-1.063-1.7-2.762
				c-3.4-7.93-8.075-13.952-14.025-18.063c-5.95-4.104-14.171-6.163-24.65-6.163c-9.921,0-17,1.913-21.25,5.737
				c-4.25,3.825-6.375,8.573-6.375,14.238c0,6.521,3.115,11.195,9.35,14.024c6.229,2.836,17.279,5.386,33.15,7.65
				c2.265,0.571,4.602,0.923,7.013,1.063c2.404,0.146,5.167,0.498,8.288,1.063c11.9,1.7,23.089,4.462,33.575,8.287
				c10.479,3.825,19.617,9.071,27.413,15.726c7.79,6.66,13.952,15.16,18.488,25.5
				C1522.162,216.12,1524.433,228.797,1524.433,243.812z"/>
		</g>
	</g>
	<g>
		<g>
			<path d="M1961.943,200.462c0,22.671-4.25,43.35-12.75,62.05s-19.908,34.85-34.212,48.45
				c-14.311,13.6-30.885,24.158-49.725,31.662c-18.846,7.504-38.608,11.263-59.287,11.263c-22.671,0-43.563-3.972-62.688-11.9
				s-35.634-18.767-49.513-32.513c-13.886-13.739-24.65-29.962-32.3-48.662c-7.65-18.7-11.475-38.954-11.475-60.775
				c0-22.949,4.104-43.841,12.325-62.688c8.215-18.839,19.477-34.989,33.788-48.449c14.304-13.454,30.879-23.867,49.725-31.238
				c18.839-7.364,38.888-11.05,60.138-11.05c20.4,0,39.95,3.546,58.65,10.625c18.7,7.086,35.275,17.286,49.725,30.601
				c14.45,13.32,25.991,29.471,34.637,48.449C1957.621,155.272,1961.943,176.661,1961.943,200.462z M1859.943,199.611
				c0-16.429-4.887-29.392-14.662-38.888c-9.775-9.489-22.884-14.237-39.313-14.237c-16.721,0-29.896,4.961-39.525,14.875
				c-9.635,9.921-14.45,22.671-14.45,38.25c0,17.851,4.954,31.597,14.875,41.226c9.915,9.635,22.95,14.449,39.1,14.449
				c15.3,0,28.116-4.953,38.462-14.875C1854.771,230.497,1859.943,216.897,1859.943,199.611z"/>
		</g>
		<g>
			<linearGradient id="SVGID_18_" gradientUnits="userSpaceOnUse" x1="1649.9937" y1="200.249" x2="1961.9434" y2="200.249">
				<stop  offset="0" style="stop-color:#DBDBDB"/>
				<stop  offset="1" style="stop-color:#FFFFFF"/>
			</linearGradient>
			<path style="&st17;" d="M1961.943,200.462c0,22.671-4.25,43.35-12.75,62.05s-19.908,34.85-34.212,48.45
				c-14.311,13.6-30.885,24.158-49.725,31.662c-18.846,7.504-38.608,11.263-59.287,11.263c-22.671,0-43.563-3.972-62.688-11.9
				s-35.634-18.767-49.513-32.513c-13.886-13.739-24.65-29.962-32.3-48.662c-7.65-18.7-11.475-38.954-11.475-60.775
				c0-22.949,4.104-43.841,12.325-62.688c8.215-18.839,19.477-34.989,33.788-48.449c14.304-13.454,30.879-23.867,49.725-31.238
				c18.839-7.364,38.888-11.05,60.138-11.05c20.4,0,39.95,3.546,58.65,10.625c18.7,7.086,35.275,17.286,49.725,30.601
				c14.45,13.32,25.991,29.471,34.637,48.449C1957.621,155.272,1961.943,176.661,1961.943,200.462z M1859.943,199.611
				c0-16.429-4.887-29.392-14.662-38.888c-9.775-9.489-22.884-14.237-39.313-14.237c-16.721,0-29.896,4.961-39.525,14.875
				c-9.635,9.921-14.45,22.671-14.45,38.25c0,17.851,4.954,31.597,14.875,41.226c9.915,9.635,22.95,14.449,39.1,14.449
				c15.3,0,28.116-4.953,38.462-14.875C1854.771,230.497,1859.943,216.897,1859.943,199.611z"/>
		</g>
	</g>
	<g>
		<g>
			<path d="M2336.317,338.161c0,1.7-0.06,3.121-0.174,4.25c-0.12,1.136-0.871,1.7-2.263,1.7h-72.418
				c-1.393,0-2.263-0.285-2.611-0.85s-0.522-1.415-0.522-2.55l-3.133-110.5c-7.431,7.371-14.509,14.449-21.238,21.25
				c-5.805,5.671-11.664,11.548-17.582,17.637c-5.919,6.097-10.739,10.838-14.449,14.238c-1.164,1.421-2.208,2.125-3.133,2.125
				c-0.696,0-1.741-0.704-3.133-2.125c-3.95-3.965-8.704-8.926-14.275-14.875c-5.571-5.95-10.913-11.754-16.016-17.426
				c-6.039-6.8-12.186-13.739-18.453-20.824l-2.437,107.524c0,2.836-0.294,4.536-0.871,5.101c-0.582,0.57-1.801,0.85-3.656,0.85
				h-63.714c-1.86,0-2.905-0.352-3.133-1.063c-0.234-0.704-0.349-2.191-0.349-4.463c0.229-21.25,0.577-43.914,1.045-68
				c0.462-24.078,1.044-48.516,1.741-73.313c0.696-24.789,1.507-49.3,2.437-73.524c0.925-24.226,1.855-46.963,2.785-68.213
				c0-2.265,0.348-3.679,1.045-4.25c0.696-0.85,1.969-0.425,3.83,1.275c9.749,8.785,20.482,18.846,32.205,30.175
				c11.718,11.336,23.093,22.525,34.12,33.575c11.021,11.05,20.944,21.184,29.768,30.388c8.818,9.21,15.319,16.083,19.497,20.612
				c4.178-4.529,10.908-11.476,20.194-20.825c9.281-9.35,19.611-19.689,30.986-31.025c11.37-11.328,23.093-22.804,35.165-34.425
				c12.066-11.614,23.093-21.814,33.076-30.6c1.855-1.7,3.134-2.404,3.83-2.125c0.696,0.571,1.044,1.985,1.044,4.25
				c1.393,27.771,2.611,53.483,3.656,77.138c1.044,23.66,1.969,46.684,2.785,69.063c0.811,22.385,1.567,44.91,2.263,67.574
				C2334.924,288.583,2335.621,312.661,2336.317,338.161z"/>
		</g>
		<g>
			<linearGradient id="SVGID_19_" gradientUnits="userSpaceOnUse" x1="2072.7563" y1="195.9692" x2="2336.3169" y2="195.9692">
				<stop  offset="0" style="stop-color:#000000"/>
				<stop  offset="1" style="stop-color:#2D2D2D"/>
			</linearGradient>
			<path style="&st18;" d="M2336.317,338.161c0,1.7-0.06,3.121-0.174,4.25c-0.12,1.136-0.871,1.7-2.263,1.7h-72.418
				c-1.393,0-2.263-0.285-2.611-0.85s-0.522-1.415-0.522-2.55l-3.133-110.5c-7.431,7.371-14.509,14.449-21.238,21.25
				c-5.805,5.671-11.664,11.548-17.582,17.637c-5.919,6.097-10.739,10.838-14.449,14.238c-1.164,1.421-2.208,2.125-3.133,2.125
				c-0.696,0-1.741-0.704-3.133-2.125c-3.95-3.965-8.704-8.926-14.275-14.875c-5.571-5.95-10.913-11.754-16.016-17.426
				c-6.039-6.8-12.186-13.739-18.453-20.824l-2.437,107.524c0,2.836-0.294,4.536-0.871,5.101c-0.582,0.57-1.801,0.85-3.656,0.85
				h-63.714c-1.86,0-2.905-0.352-3.133-1.063c-0.234-0.704-0.349-2.191-0.349-4.463c0.229-21.25,0.577-43.914,1.045-68
				c0.462-24.078,1.044-48.516,1.741-73.313c0.696-24.789,1.507-49.3,2.437-73.524c0.925-24.226,1.855-46.963,2.785-68.213
				c0-2.265,0.348-3.679,1.045-4.25c0.696-0.85,1.969-0.425,3.83,1.275c9.749,8.785,20.482,18.846,32.205,30.175
				c11.718,11.336,23.093,22.525,34.12,33.575c11.021,11.05,20.944,21.184,29.768,30.388c8.818,9.21,15.319,16.083,19.497,20.612
				c4.178-4.529,10.908-11.476,20.194-20.825c9.281-9.35,19.611-19.689,30.986-31.025c11.37-11.328,23.093-22.804,35.165-34.425
				c12.066-11.614,23.093-21.814,33.076-30.6c1.855-1.7,3.134-2.404,3.83-2.125c0.696,0.571,1.044,1.985,1.044,4.25
				c1.393,27.771,2.611,53.483,3.656,77.138c1.044,23.66,1.969,46.684,2.785,69.063c0.811,22.385,1.567,44.91,2.263,67.574
				C2334.924,288.583,2335.621,312.661,2336.317,338.161z"/>
		</g>
	</g>
	<g>
		<g>
			<path d="M2722.309,342.624c-0.424,0.711-1.772,1.063-4.037,1.063h-215.475c-2.271,0-3.686-0.352-4.25-1.063
				c-0.571-0.704-0.85-2.338-0.85-4.888V59.786c0-1.979,0.14-3.188,0.425-3.612c0.279-0.425,1.7-0.638,4.25-0.638h212.076
				c2.264,0,3.678,0.286,4.25,0.851c0.564,0.571,0.85,2.271,0.85,5.1v56.101c0,2.271-0.285,3.824-0.85,4.675
				c-0.572,0.85-1.986,1.274-4.25,1.274h-118.576v37.4h115.6c2.265,0,3.679,0.358,4.25,1.063c0.564,0.711,0.851,2.338,0.851,4.888
				v64.6c0,2.271-0.286,3.759-0.851,4.463c-0.571,0.71-1.985,1.063-4.25,1.063h-115.6v35.7h122.4c2.265,0,3.613,0.212,4.037,0.637
				c0.426,0.426,0.639,2.059,0.639,4.888v59.5C2722.947,340.286,2722.734,341.92,2722.309,342.624z"/>
		</g>
		<g>
			<linearGradient id="SVGID_20_" gradientUnits="userSpaceOnUse" x1="2497.6968" y1="199.6113" x2="2722.9473" y2="199.6113">
				<stop  offset="0" style="stop-color:#DBDBDB"/>
				<stop  offset="1" style="stop-color:#FFFFFF"/>
			</linearGradient>
			<path style="&st19;" d="M2722.309,342.624c-0.424,0.711-1.772,1.063-4.037,1.063h-215.475c-2.271,0-3.686-0.352-4.25-1.063
				c-0.571-0.704-0.85-2.338-0.85-4.888V59.786c0-1.979,0.14-3.188,0.425-3.612c0.279-0.425,1.7-0.638,4.25-0.638h212.076
				c2.264,0,3.678,0.286,4.25,0.851c0.564,0.571,0.85,2.271,0.85,5.1v56.101c0,2.271-0.285,3.824-0.85,4.675
				c-0.572,0.85-1.986,1.274-4.25,1.274h-118.576v37.4h115.6c2.265,0,3.679,0.358,4.25,1.063c0.564,0.711,0.851,2.338,0.851,4.888
				v64.6c0,2.271-0.286,3.759-0.851,4.463c-0.571,0.71-1.985,1.063-4.25,1.063h-115.6v35.7h122.4c2.265,0,3.613,0.212,4.037,0.637
				c0.426,0.426,0.639,2.059,0.639,4.888v59.5C2722.947,340.286,2722.734,341.92,2722.309,342.624z"/>
		</g>
	</g>
	<g>
		<g>
			<path d="M3529.743,135.012l-74.8-4.675v209.524c0,1.7-0.212,2.763-0.638,3.188c-0.425,0.425-1.633,0.638-3.612,0.638h-92.225
				c-2.271,0-3.546-0.066-3.825-0.213c-0.285-0.139-0.425-1.341-0.425-3.612V130.337l-77.351,4.675c-1.421,0-2.271-0.14-2.55-0.425
				c-0.285-0.279-0.425-1.129-0.425-2.551v-72.25c0-1.699,0.14-2.828,0.425-3.399c0.279-0.564,1.275-0.851,2.976-0.851h252.024
				c2.265,0,3.4,1.422,3.4,4.25v72.25C3532.719,134.022,3531.723,135.012,3529.743,135.012z"/>
		</g>
		<g>
			<linearGradient id="SVGID_21_" gradientUnits="userSpaceOnUse" x1="3273.8936" y1="199.6113" x2="3532.7188" y2="199.6113">
				<stop  offset="0" style="stop-color:#DBDBDB"/>
				<stop  offset="1" style="stop-color:#FFFFFF"/>
			</linearGradient>
			<path style="&st20;" d="M3529.743,135.012l-74.8-4.675v209.524c0,1.7-0.212,2.763-0.638,3.188
				c-0.425,0.425-1.633,0.638-3.612,0.638h-92.225c-2.271,0-3.546-0.066-3.825-0.213c-0.285-0.139-0.425-1.341-0.425-3.612V130.337
				l-77.351,4.675c-1.421,0-2.271-0.14-2.55-0.425c-0.285-0.279-0.425-1.129-0.425-2.551v-72.25c0-1.699,0.14-2.828,0.425-3.399
				c0.279-0.564,1.275-0.851,2.976-0.851h252.024c2.265,0,3.4,1.422,3.4,4.25v72.25
				C3532.719,134.022,3531.723,135.012,3529.743,135.012z"/>
		</g>
	</g>
	<g>
		<g>
			<path d="M3958.431,200.462c0,22.671-4.25,43.35-12.75,62.05s-19.908,34.85-34.212,48.45
				c-14.311,13.6-30.886,24.158-49.726,31.662c-18.846,7.504-38.608,11.263-59.287,11.263c-22.671,0-43.563-3.972-62.688-11.9
				s-35.634-18.767-49.513-32.513c-13.886-13.739-24.65-29.962-32.3-48.662c-7.65-18.7-11.476-38.954-11.476-60.775
				c0-22.949,4.104-43.841,12.325-62.688c8.215-18.839,19.478-34.989,33.788-48.449c14.304-13.454,30.879-23.867,49.725-31.238
				c18.84-7.364,38.888-11.05,60.138-11.05c20.399,0,39.95,3.546,58.649,10.625c18.7,7.086,35.275,17.286,49.726,30.601
				c14.45,13.32,25.991,29.471,34.638,48.449C3954.107,155.272,3958.431,176.661,3958.431,200.462z M3856.431,199.611
				c0-16.429-4.888-29.392-14.662-38.888c-9.775-9.489-22.884-14.237-39.313-14.237c-16.722,0-29.896,4.961-39.525,14.875
				c-9.636,9.921-14.45,22.671-14.45,38.25c0,17.851,4.954,31.597,14.875,41.226c9.915,9.635,22.95,14.449,39.101,14.449
				c15.3,0,28.116-4.953,38.462-14.875C3851.258,230.497,3856.431,216.897,3856.431,199.611z"/>
		</g>
		<g>
			<linearGradient id="SVGID_22_" gradientUnits="userSpaceOnUse" x1="3646.4805" y1="200.249" x2="3958.4307" y2="200.249">
				<stop  offset="0" style="stop-color:#000000"/>
				<stop  offset="1" style="stop-color:#2D2D2D"/>
			</linearGradient>
			<path style="&st21;" d="M3958.431,200.462c0,22.671-4.25,43.35-12.75,62.05s-19.908,34.85-34.212,48.45
				c-14.311,13.6-30.886,24.158-49.726,31.662c-18.846,7.504-38.608,11.263-59.287,11.263c-22.671,0-43.563-3.972-62.688-11.9
				s-35.634-18.767-49.513-32.513c-13.886-13.739-24.65-29.962-32.3-48.662c-7.65-18.7-11.476-38.954-11.476-60.775
				c0-22.949,4.104-43.841,12.325-62.688c8.215-18.839,19.478-34.989,33.788-48.449c14.304-13.454,30.879-23.867,49.725-31.238
				c18.84-7.364,38.888-11.05,60.138-11.05c20.399,0,39.95,3.546,58.649,10.625c18.7,7.086,35.275,17.286,49.726,30.601
				c14.45,13.32,25.991,29.471,34.638,48.449C3954.107,155.272,3958.431,176.661,3958.431,200.462z M3856.431,199.611
				c0-16.429-4.888-29.392-14.662-38.888c-9.775-9.489-22.884-14.237-39.313-14.237c-16.722,0-29.896,4.961-39.525,14.875
				c-9.636,9.921-14.45,22.671-14.45,38.25c0,17.851,4.954,31.597,14.875,41.226c9.915,9.635,22.95,14.449,39.101,14.449
				c15.3,0,28.116-4.953,38.462-14.875C3851.258,230.497,3856.431,216.897,3856.431,199.611z"/>
		</g>
	</g>
	<g>
		<g>
			<path d="M4358.431,200.462c0,22.671-4.25,43.35-12.75,62.05s-19.908,34.85-34.212,48.45
				c-14.311,13.6-30.886,24.158-49.726,31.662c-18.846,7.504-38.608,11.263-59.287,11.263c-22.671,0-43.563-3.972-62.688-11.9
				s-35.634-18.767-49.513-32.513c-13.886-13.739-24.65-29.962-32.3-48.662c-7.65-18.7-11.476-38.954-11.476-60.775
				c0-22.949,4.104-43.841,12.325-62.688c8.215-18.839,19.478-34.989,33.788-48.449c14.304-13.454,30.879-23.867,49.725-31.238
				c18.84-7.364,38.888-11.05,60.138-11.05c20.399,0,39.95,3.546,58.649,10.625c18.7,7.086,35.275,17.286,49.726,30.601
				c14.45,13.32,25.991,29.471,34.638,48.449C4354.107,155.272,4358.431,176.661,4358.431,200.462z M4256.431,199.611
				c0-16.429-4.888-29.392-14.662-38.888c-9.775-9.489-22.884-14.237-39.313-14.237c-16.722,0-29.896,4.961-39.525,14.875
				c-9.636,9.921-14.45,22.671-14.45,38.25c0,17.851,4.954,31.597,14.875,41.226c9.915,9.635,22.95,14.449,39.101,14.449
				c15.3,0,28.116-4.953,38.462-14.875C4251.258,230.497,4256.431,216.897,4256.431,199.611z"/>
		</g>
		<g>
			<linearGradient id="SVGID_23_" gradientUnits="userSpaceOnUse" x1="4046.4805" y1="200.249" x2="4358.4307" y2="200.249">
				<stop  offset="0" style="stop-color:#DBDBDB"/>
				<stop  offset="1" style="stop-color:#FFFFFF"/>
			</linearGradient>
			<path style="&st22;" d="M4358.431,200.462c0,22.671-4.25,43.35-12.75,62.05s-19.908,34.85-34.212,48.45
				c-14.311,13.6-30.886,24.158-49.726,31.662c-18.846,7.504-38.608,11.263-59.287,11.263c-22.671,0-43.563-3.972-62.688-11.9
				s-35.634-18.767-49.513-32.513c-13.886-13.739-24.65-29.962-32.3-48.662c-7.65-18.7-11.476-38.954-11.476-60.775
				c0-22.949,4.104-43.841,12.325-62.688c8.215-18.839,19.478-34.989,33.788-48.449c14.304-13.454,30.879-23.867,49.725-31.238
				c18.84-7.364,38.888-11.05,60.138-11.05c20.399,0,39.95,3.546,58.649,10.625c18.7,7.086,35.275,17.286,49.726,30.601
				c14.45,13.32,25.991,29.471,34.638,48.449C4354.107,155.272,4358.431,176.661,4358.431,200.462z M4256.431,199.611
				c0-16.429-4.888-29.392-14.662-38.888c-9.775-9.489-22.884-14.237-39.313-14.237c-16.722,0-29.896,4.961-39.525,14.875
				c-9.636,9.921-14.45,22.671-14.45,38.25c0,17.851,4.954,31.597,14.875,41.226c9.915,9.635,22.95,14.449,39.101,14.449
				c15.3,0,28.116-4.953,38.462-14.875C4251.258,230.497,4256.431,216.897,4256.431,199.611z"/>
		</g>
	</g>
	<g>
		<g>
			<path d="M4742.283,345.812c0,3.4-0.285,5.239-0.85,5.525c-0.85,0.278-2.41-0.146-4.676-1.275
				c-9.07-5.386-18.561-11.263-28.475-17.638c-9.92-6.375-19.975-12.816-30.174-19.337c-10.201-6.515-20.262-13.103-30.176-19.763
				c-9.922-6.654-19.41-12.963-28.475-18.913c-21.25-13.879-42.221-28.05-62.9-42.5v107.95c0,1.985-0.146,3.121-0.426,3.4
				c-0.285,0.285-1.561,0.425-3.824,0.425h-80.324c-1.986,0-3.262-0.491-3.826-1.487c-0.57-0.989-0.85-1.913-0.85-2.763
				c-0.285-28.05-0.498-53.55-0.637-76.5c-0.146-22.95-0.213-45.402-0.213-67.362c0-21.954,0.066-44.479,0.213-67.575
				c0.139-23.09,0.352-48.662,0.637-76.713c0-1.979,0.279-3.254,0.85-3.824c0.85-0.279,2.125,0.146,3.826,1.274
				c17,10.771,35.838,22.95,56.523,36.55c20.68,13.601,40.375,26.636,59.076,39.101c21.529,14.45,43.203,29.046,65.025,43.774
				V60.637c0-2.265,0.066-3.679,0.211-4.25c0.141-0.564,1.342-0.851,3.613-0.851h81.176c2.264,0,3.611,0.286,4.037,0.851
				c0.424,0.571,0.637,1.985,0.637,4.25c0.564,41.649,0.85,85.71,0.85,132.175C4743.133,239.282,4742.848,290.282,4742.283,345.812z
				"/>
		</g>
		<g>
			<linearGradient id="SVGID_24_" gradientUnits="userSpaceOnUse" x1="4466.459" y1="199.3994" x2="4743.1328" y2="199.3994">
				<stop  offset="0" style="stop-color:#000000"/>
				<stop  offset="1" style="stop-color:#2D2D2D"/>
			</linearGradient>
			<path style="&st23;" d="M4742.283,345.812c0,3.4-0.285,5.239-0.85,5.525c-0.85,0.278-2.41-0.146-4.676-1.275
				c-9.07-5.386-18.561-11.263-28.475-17.638c-9.92-6.375-19.975-12.816-30.174-19.337c-10.201-6.515-20.262-13.103-30.176-19.763
				c-9.922-6.654-19.41-12.963-28.475-18.913c-21.25-13.879-42.221-28.05-62.9-42.5v107.95c0,1.985-0.146,3.121-0.426,3.4
				c-0.285,0.285-1.561,0.425-3.824,0.425h-80.324c-1.986,0-3.262-0.491-3.826-1.487c-0.57-0.989-0.85-1.913-0.85-2.763
				c-0.285-28.05-0.498-53.55-0.637-76.5c-0.146-22.95-0.213-45.402-0.213-67.362c0-21.954,0.066-44.479,0.213-67.575
				c0.139-23.09,0.352-48.662,0.637-76.713c0-1.979,0.279-3.254,0.85-3.824c0.85-0.279,2.125,0.146,3.826,1.274
				c17,10.771,35.838,22.95,56.523,36.55c20.68,13.601,40.375,26.636,59.076,39.101c21.529,14.45,43.203,29.046,65.025,43.774
				V60.637c0-2.265,0.066-3.679,0.211-4.25c0.141-0.564,1.342-0.851,3.613-0.851h81.176c2.264,0,3.611,0.286,4.037,0.851
				c0.424,0.571,0.637,1.985,0.637,4.25c0.564,41.649,0.85,85.71,0.85,132.175C4743.133,239.282,4742.848,290.282,4742.283,345.812z
				"/>
		</g>
	</g>
	<g>
		<g>
			<path d="M5125.644,243.812c0,17.85-3.333,33.575-9.987,47.175c-6.66,13.601-15.725,25.075-27.2,34.425
				c-11.476,9.351-24.936,16.436-40.375,21.25c-15.446,4.814-31.948,7.226-49.513,7.226c-29.186,0-53.41-5.811-72.675-17.425
				c-19.271-11.615-33.011-27.479-41.226-47.601c-1.42-3.399-1.984-5.452-1.699-6.162c0.279-0.704,1.414-1.342,3.4-1.913
				l63.324-23.8c1.979-0.85,3.188-1.129,3.613-0.85c0.424,0.285,0.916,1.136,1.486,2.55c2.266,7.936,7.226,14.596,14.875,19.975
				c7.65,5.386,16.15,8.075,25.5,8.075c9.915,0,17.353-1.979,22.313-5.95c4.955-3.964,7.438-9.203,7.438-15.725
				c0-7.079-2.975-12.179-8.924-15.3c-5.951-3.114-15.301-5.379-28.051-6.8c-1.421-0.279-3.188-0.492-5.313-0.638
				c-2.125-0.14-3.898-0.353-5.313-0.638c-8.221-0.564-17.425-2.191-27.625-4.888c-10.199-2.689-19.762-7.151-28.688-13.388
				c-8.925-6.229-16.508-14.802-22.737-25.712c-6.235-10.904-9.351-25.002-9.351-42.288c0-16.429,2.617-31.377,7.863-44.837
				c5.239-13.454,13.102-24.929,23.588-34.425c10.479-9.49,23.441-16.788,38.887-21.888c15.439-5.101,33.217-7.65,53.338-7.65
				c30.029,0,53.762,5.737,71.188,17.213c17.425,11.475,28.116,26.563,32.088,45.263c0.564,2.55,0.776,4.184,0.637,4.887
				c-0.146,0.711-1.348,1.488-3.612,2.338l-59.925,22.1c-1.7,0.851-2.836,1.209-3.4,1.063c-0.57-0.139-1.135-1.063-1.699-2.762
				c-3.4-7.93-8.076-13.952-14.025-18.063c-5.95-4.104-14.172-6.163-24.65-6.163c-9.921,0-17,1.913-21.25,5.737
				c-4.25,3.825-6.375,8.573-6.375,14.238c0,6.521,3.115,11.195,9.35,14.024c6.229,2.836,17.279,5.386,33.15,7.65
				c2.265,0.571,4.602,0.923,7.013,1.063c2.403,0.146,5.167,0.498,8.288,1.063c11.899,1.7,23.089,4.462,33.574,8.287
				c10.479,3.825,19.617,9.071,27.412,15.726c7.79,6.66,13.953,15.16,18.488,25.5
				C5123.373,216.12,5125.644,228.797,5125.644,243.812z"/>
		</g>
		<g>
			<linearGradient id="SVGID_25_" gradientUnits="userSpaceOnUse" x1="4882.8975" y1="200.249" x2="5125.6436" y2="200.249">
				<stop  offset="0" style="stop-color:#DBDBDB"/>
				<stop  offset="1" style="stop-color:#FFFFFF"/>
			</linearGradient>
			<path style="&st24;" d="M5125.644,243.812c0,17.85-3.333,33.575-9.987,47.175c-6.66,13.601-15.725,25.075-27.2,34.425
				c-11.476,9.351-24.936,16.436-40.375,21.25c-15.446,4.814-31.948,7.226-49.513,7.226c-29.186,0-53.41-5.811-72.675-17.425
				c-19.271-11.615-33.011-27.479-41.226-47.601c-1.42-3.399-1.984-5.452-1.699-6.162c0.279-0.704,1.414-1.342,3.4-1.913
				l63.324-23.8c1.979-0.85,3.188-1.129,3.613-0.85c0.424,0.285,0.916,1.136,1.486,2.55c2.266,7.936,7.226,14.596,14.875,19.975
				c7.65,5.386,16.15,8.075,25.5,8.075c9.915,0,17.353-1.979,22.313-5.95c4.955-3.964,7.438-9.203,7.438-15.725
				c0-7.079-2.975-12.179-8.924-15.3c-5.951-3.114-15.301-5.379-28.051-6.8c-1.421-0.279-3.188-0.492-5.313-0.638
				c-2.125-0.14-3.898-0.353-5.313-0.638c-8.221-0.564-17.425-2.191-27.625-4.888c-10.199-2.689-19.762-7.151-28.688-13.388
				c-8.925-6.229-16.508-14.802-22.737-25.712c-6.235-10.904-9.351-25.002-9.351-42.288c0-16.429,2.617-31.377,7.863-44.837
				c5.239-13.454,13.102-24.929,23.588-34.425c10.479-9.49,23.441-16.788,38.887-21.888c15.439-5.101,33.217-7.65,53.338-7.65
				c30.029,0,53.762,5.737,71.188,17.213c17.425,11.475,28.116,26.563,32.088,45.263c0.564,2.55,0.776,4.184,0.637,4.887
				c-0.146,0.711-1.348,1.488-3.612,2.338l-59.925,22.1c-1.7,0.851-2.836,1.209-3.4,1.063c-0.57-0.139-1.135-1.063-1.699-2.762
				c-3.4-7.93-8.076-13.952-14.025-18.063c-5.95-4.104-14.172-6.163-24.65-6.163c-9.921,0-17,1.913-21.25,5.737
				c-4.25,3.825-6.375,8.573-6.375,14.238c0,6.521,3.115,11.195,9.35,14.024c6.229,2.836,17.279,5.386,33.15,7.65
				c2.265,0.571,4.602,0.923,7.013,1.063c2.403,0.146,5.167,0.498,8.288,1.063c11.899,1.7,23.089,4.462,33.574,8.287
				c10.479,3.825,19.617,9.071,27.412,15.726c7.79,6.66,13.953,15.16,18.488,25.5
				C5123.373,216.12,5125.644,228.797,5125.644,243.812z"/>
		</g>
	</g>
</g>
</svg>
